<?xml version="1.0" encoding="UTF-8"?>
<svg width="200px" height="72px" viewBox="0 0 200 72" version="1.1" xmlns="http://www.w3.org/2000/svg" xmlns:xlink="http://www.w3.org/1999/xlink">
    <!-- Generator: sketchtool 64 (101010) - https://sketch.com -->
    <title>5C6E73B5-E423-4236-B999-F5B7C8D5EB59</title>
    <desc>Created with sketchtool.</desc>
    <g id="Pages" stroke="none" stroke-width="1" fill="none" fill-rule="evenodd">
        <g id="Incedo-Pay---Payment-Dashboard">
            <g id="logo/general">
                <g>
                    <rect id="Rectangle" fill="#333C4B" x="0" y="0" width="200" height="72"></rect>
                    <g id="logo/general-no-background" transform="translate(27.000000, 21.000000)">
                        <path d="M72.2089642,7 L67.4863167,7 C66.7758144,7 66.33,7.44686771 66.33,8.15904869 L66.33,24.6648034 C66.33,25.3770767 66.7758144,25.81 67.4863167,25.81 L72.2089642,25.81 C78.4363621,25.81 82.17,22.2909283 82.17,16.411926 C82.17,10.5190717 78.4503657,7 72.2089642,7 Z M77.4054335,16.3979816 C77.4054335,19.7913689 75.622176,21.4530629 71.9442763,21.4530629 L71.2198625,21.4530629 L71.2198625,11.3429927 L71.9442763,11.3429927 C75.622176,11.3429927 77.4054335,13.0046867 77.4054335,16.3979816 L77.4054335,16.3979816 Z" id="Fill-1" fill="#FFFFFF"></path>
                        <path d="M42.2764184,19.5445234 C42.1327155,19.3939862 41.9889262,19.3119326 41.8451369,19.3119326 C41.6622895,19.3119326 41.544683,19.3939862 41.4008937,19.5445234 C40.1595878,20.9672987 38.7614444,21.5828365 37.1803671,21.5828365 C34.5016004,21.5828365 32.4109526,19.5445234 32.4109526,16.4391513 C32.4109526,13.2106536 34.6061587,11.2134125 37.2195981,11.2134125 C38.9836092,11.2134125 40.0419813,11.7879687 41.2832872,13.1012789 C41.4270765,13.2517257 41.5707793,13.3337793 41.7537132,13.3337793 C41.936647,13.3337793 42.0542535,13.2517257 42.1979564,13.1012789 L44.0011985,10.7619819 C44.1449878,10.5703727 44.2233633,10.419926 44.2233633,10.2694793 C44.2233633,10.0779605 44.118805,9.88644177 43.9358711,9.69492302 C42.5638241,8.23116612 40.4078489,7 37.2979736,7 C32.0189885,7 27.72,10.7209099 27.72,16.4117398 C27.72,22.6635559 32.1626914,25.81 37.1019052,25.81 C39.9635193,25.81 42.0804363,25.002853 44.3278352,22.5131092 C44.4716245,22.3626625 44.55,22.2121253 44.55,22.0479276 C44.55,21.8974809 44.4716245,21.7470342 44.3670662,21.6239086 L42.2764184,19.5445234" id="Fill-5" fill="#FFFFFF"></path>
                        <path d="M54.5421697,7 C49.7515205,7 45.54,10.6825122 45.54,16.4049095 C45.54,22.4696113 49.8963462,25.81 54.7000506,25.81 C58.0956211,25.81 60.0170855,24.8106084 62.3860821,22.387498 C62.5308207,22.2368514 62.6097612,22.0725344 62.6097612,21.9219783 C62.6097612,21.7714223 62.5308207,21.6071053 62.4255958,21.4976511 L60.4382462,19.4578566 C60.2539938,19.2661081 60.1092552,19.1839949 59.9644295,19.1839949 C59.7407504,19.1839949 59.5960117,19.2935395 59.4116723,19.5262088 C58.2667313,20.7994621 56.8584233,21.7166499 54.9106745,21.7166499 C52.5811046,21.7166499 50.699154,20.4844985 50.0674564,18.10249 L62.6229904,18.10249 C63.1362339,18.10249 63.36,17.8698207 63.36,17.3358583 L63.36,16.1859106 C63.3336285,11.8325504 60.6093564,7 54.5421697,7 Z M50.0410849,14.1461161 C50.6727825,12.4211946 52.2521135,10.9973853 54.502656,10.9973853 C56.6083727,10.9973853 58.1614193,12.1884348 58.7536032,14.1461161 L50.0410849,14.1461161 L50.0410849,14.1461161 Z" id="Fill-6" fill="#FFFFFF"></path>
                        <path d="M93.548572,7 C88.2794136,7 84.15,10.5320467 84.15,16.405 C84.15,22.7023711 88.3999934,25.81 93.548572,25.81 C98.6962641,25.81 102.96,22.7023711 102.96,16.405 C102.96,10.5320467 98.8168438,7 93.548572,7 Z M93.548572,21.5935253 C90.7326799,21.5935253 88.9630832,19.485288 88.9630832,16.4460114 C88.9630832,13.1057131 91.0678207,11.2164747 93.548572,11.2164747 C96.0284368,11.2164747 98.1333374,13.0920427 98.1333374,16.4460114 C98.1465622,19.485288 96.3768768,21.5935253 93.548572,21.5935253 L93.548572,21.5935253 Z" id="Fill-7" fill="#FFFFFF"></path>
                        <path d="M4.15345476,8.01406376 C3.68406875,8.13549662 0,10.6045719 0,10.6045719 L0,25.0543682 C0,25.580607 0.24184197,25.81 0.796545237,25.81 L4.15345476,25.81 C4.70815803,25.81 4.95,25.580607 4.95,25.0543682 L4.95,8.76969555 C4.95,8.24345676 4.62284077,7.89272012 4.15345476,8.01406376" id="Fill-3" fill="#FFFFFF"></path>
                        <path d="M19.2205892,7 C16.5497861,7 14.25477,8.10309175 12.5905327,9.8207566 L12.5905327,8.17299887 C12.5905327,7.62833288 12.3624334,7.39090727 11.8389588,7.39090727 L8.67157385,7.39090727 C8.14818805,7.39090727 7.92,7.62833288 7.92,8.17299887 L7.92,25.0279084 C7.92,25.5725744 8.14818805,25.81 8.67157385,25.81 L11.8389588,25.81 C12.3624334,25.81 12.5905327,25.5725744 12.5905327,25.0279084 L12.5905327,18.2831188 C12.5905327,16.1606021 13.0066142,15.0713625 13.7983939,13.7726786 C14.6305569,12.4041799 16.0263115,11.3009958 17.7844512,11.3009958 C19.2875989,11.3009958 20.0794673,12.0829951 20.0794673,13.6889194 L20.0794673,25.0279084 C20.0794673,25.5725744 20.3076554,25.81 20.8310412,25.81 L23.9984261,25.81 C24.5219007,25.81 24.75,25.5725744 24.75,25.0279084 L24.75,12.1249209 C24.75,9.10857212 22.7234665,7 19.2205892,7" id="Fill-4" fill="#FFFFFF"></path>
                        <text id="PAY" font-family="Lato-Light, Lato" font-size="25" font-weight="300" fill="#CEE0FF">
                            <tspan x="106" y="25">PAY</tspan>
                        </text>
                    </g>
                </g>
            </g>
        </g>
    </g>
</svg>